<?xml version="1.0" encoding="UTF-8"?><svg id="Layer_1" xmlns="http://www.w3.org/2000/svg" width="1070" height="1069.9997" viewBox="0 0 1070 1069.9997"><path d="m308.9521,507.3681h113.5218c46.8884,0,84.8938-38.0054,84.8938-84.8938v-225.0548c0-15.2584,12.374-27.6324,27.6324-27.6324s27.6318,12.374,27.6318,27.6324c0,46.8872,38.0054,84.8932,84.8932,84.8932h84.8938v-84.8932C732.419,88.386,644.0336,0,535.0002,0s-197.4194,88.386-197.4194,197.4194v225.0548c0,30.9534-10.1272,60.6308-28.6286,84.8938h0Z" style="fill:#ffffff; fill-rule:evenodd;"/><path d="m507.3678,761.0476v-113.5221c0-46.8878-38.0054-84.8938-84.8938-84.8938h-225.0545c-15.2581,0-27.6321-12.3734-27.6321-27.6318s12.374-27.6318,27.6321-27.6318c46.8875,0,84.8935-38.0054,84.8935-84.8938v-84.8938h-84.8935C88.386,337.5804,0,425.967,0,534.9998s88.386,197.4194,197.4194,197.4194h225.0545c30.9534,0,60.6308,10.1269,84.8938,28.6283h0Z" style="fill:#ffffff; fill-rule:evenodd;"/><path d="m761.0479,562.6316h-113.5227c-46.8878,0-84.8932,38.006-84.8932,84.8938v225.0548c0,15.259-12.374,27.6318-27.6318,27.6318s-27.6324-12.3728-27.6324-27.6318c0-46.8866-38.0054-84.8926-84.8938-84.8926h-84.8932v84.8926c0,109.0335,88.386,197.4194,197.4194,197.4194s197.4188-88.386,197.4188-197.4194v-225.0548c0-30.9528,10.1275-60.6308,28.6289-84.8938h0Z" style="fill:#ffffff; fill-rule:evenodd;"/><path d="m562.6319,308.9515v113.5227c0,46.8884,38.0054,84.8938,84.8932,84.8938h225.056c15.2578,0,27.6312,12.3734,27.6312,27.6318s-12.3734,27.6318-27.6312,27.6318c-46.8884,0-84.8944,38.006-84.8944,84.8938v84.8938h84.8944c109.0322,0,197.4188-88.3866,197.4188-197.4194s-88.3866-197.4194-197.4188-197.4194h-225.056c-30.9528,0-60.6302-10.1263-84.8932-28.6289h0Z" style="fill:#ffffff; fill-rule:evenodd;"/></svg>